<?xml version="1.0" standalone="no"?>
<!DOCTYPE svg PUBLIC "-//W3C//DTD SVG 20010904//EN"
 "http://www.w3.org/TR/2001/REC-SVG-20010904/DTD/svg10.dtd">
<svg version="1.0" xmlns="http://www.w3.org/2000/svg"
 width="300.000000pt" height="300.000000pt" viewBox="0 0 300.000000 300.000000"
 preserveAspectRatio="xMidYMid meet">
<metadata>
Created by potrace 1.11, written by Peter Selinger 2001-2013
</metadata>
<g transform="translate(0.000000,300.000000) scale(0.100000,-0.100000)"
fill="#000000" stroke="none">
<path d="M197 2519 c-57 -19 -82 -41 -110 -94 -19 -37 -21 -56 -21 -280 0
-262 3 -280 63 -333 48 -44 85 -53 217 -54 115 -1 128 -3 161 -25 130 -88 273
-134 407 -129 139 4 198 38 198 111 1 56 -48 81 -235 120 -296 62 -417 168
-431 375 -7 106 26 191 104 274 l48 51 -176 0 c-136 0 -188 -4 -225 -16z"/>
<path d="M1459 2530 c-5 -24 -4 -140 2 -138 4 2 23 23 43 47 20 24 48 52 61
63 14 11 25 22 25 26 0 8 -129 10 -131 2z"/>
<path d="M2440 2532 c-6 -2 7 -24 29 -48 53 -60 97 -153 117 -249 3 -16 8 -94
11 -172 l6 -143 -59 0 c-33 0 -224 0 -426 0 l-368 0 0 -30 c0 -81 71 -190 149
-229 107 -54 290 -59 431 -11 58 19 162 72 190 95 10 9 53 13 134 13 105 0
124 3 165 24 26 14 58 42 76 67 l30 43 0 253 0 253 -30 44 c-17 23 -50 54 -74
67 -40 22 -54 24 -207 25 -90 0 -169 -1 -174 -2z"/>
<path d="M1846 2319 c-76 -18 -124 -74 -140 -161 l-7 -38 195 0 195 0 -5 43
c-8 57 -42 117 -81 139 -38 23 -105 30 -157 17z"/>
<path d="M1039 2299 c-55 -16 -83 -50 -75 -92 6 -30 14 -38 54 -55 26 -11 94
-29 151 -41 58 -12 129 -32 159 -46 30 -14 55 -25 56 -25 1 0 3 15 4 33 2 17
9 55 16 84 l14 52 -37 24 c-91 60 -253 91 -342 66z"/>
<path d="M1460 1579 c0 -21 -69 -96 -120 -129 -25 -16 -43 -30 -40 -31 14 -4
346 -5 353 -1 4 2 -13 17 -39 34 -26 16 -71 55 -101 85 -29 31 -53 49 -53 42z"/>
<path d="M993 900 c0 -167 1 -171 21 -168 19 3 20 10 21 91 0 95 11 117 61
117 37 0 46 -23 47 -120 1 -78 3 -90 18 -90 24 0 26 13 23 115 -2 83 -4 91
-29 112 -30 26 -63 29 -91 8 -28 -21 -30 -19 -29 33 1 60 -3 72 -24 72 -16 0
-18 -16 -18 -170z"/>
<path d="M1649 1038 c-1 -2 -2 -16 -3 -32 -1 -18 -9 -32 -20 -36 -18 -6 -18
-7 0 -24 14 -15 18 -35 19 -95 1 -78 15 -120 40 -122 57 -5 75 0 75 20 0 13
-6 17 -22 14 -40 -6 -50 10 -50 78 0 103 -2 99 37 99 24 0 35 5 35 15 0 10
-10 15 -34 15 -36 0 -48 14 -41 50 3 14 -1 20 -16 20 -10 0 -20 -1 -20 -2z"/>
<path d="M820 968 c-32 -18 -47 -59 -32 -92 8 -19 26 -29 67 -41 46 -14 55
-20 55 -40 0 -37 -49 -47 -100 -20 -29 15 -30 15 -30 -10 0 -26 13 -32 75 -39
66 -8 118 49 93 102 -9 18 -29 31 -68 43 -30 10 -56 19 -57 19 -3 0 6 42 10
46 11 11 56 9 79 -2 15 -8 29 -14 32 -14 6 0 -1 41 -8 48 -12 12 -93 12 -116
0z"/>
<path d="M1281 967 c-41 -21 -64 -61 -63 -109 2 -87 39 -132 111 -132 64 0 91
12 91 39 0 23 -1 23 -27 9 -16 -7 -41 -14 -56 -14 -33 0 -77 40 -77 69 0 17 7
19 73 18 85 -1 99 5 93 39 -9 49 -18 65 -46 79 -35 18 -67 19 -99 2z m79 -27
c4 0 13 -13 19 -30 l10 -30 -65 0 c-67 0 -76 8 -51 41 14 18 44 29 65 23 8 -2
17 -4 22 -4z"/>
<path d="M1835 967 c-85 -39 -77 -212 11 -236 92 -25 153 39 141 146 -9 79
-81 122 -152 90z m103 -62 c15 -33 8 -102 -13 -125 -23 -26 -59 -26 -85 0 -19
19 -25 46 -20 100 6 68 90 86 118 25z"/>
<path d="M2098 966 c-16 -8 -28 -11 -28 -5 0 5 -9 9 -20 9 -19 0 -20 -7 -20
-120 0 -113 1 -120 20 -120 19 0 20 7 20 94 l0 94 29 12 c60 24 85 -7 81 -102
-4 -88 -1 -98 21 -98 20 0 21 4 17 106 -3 97 -5 107 -27 125 -28 23 -56 24
-93 5z"/>
<path d="M1469 940 c0 -16 0 -50 0 -75 0 -133 0 -135 21 -135 18 0 20 7 20 88
0 85 1 89 25 100 14 7 34 12 43 12 11 0 18 8 19 20 2 25 -32 27 -65 4 -20 -14
-22 -14 -22 0 0 9 -9 16 -20 16 -15 0 -20 -7 -21 -30z"/>
<path d="M1575 470 c0 -165 0 -171 20 -168 19 3 20 10 20 168 0 157 -1 165
-20 168 -19 3 -20 -3 -20 -168z"/>
<path d="M1979 623 c-1 -24 -1 -261 0 -295 1 -21 6 -28 21 -28 19 0 20 7 20
93 0 91 1 94 25 105 65 30 83 9 83 -93 0 -106 0 -105 23 -105 20 0 21 4 17
106 -3 97 -5 107 -27 125 -28 23 -56 24 -93 5 l-27 -14 -3 56 c-2 45 -7 58
-20 60 -12 2 -18 -3 -19 -15z"/>
<path d="M1679 619 c-5 -27 -2 -32 19 -35 17 -3 22 1 22 19 0 16 -6 23 -20 24
-11 1 -21 -2 -21 -8z"/>
<path d="M893 540 c-74 -31 -84 -192 -15 -229 29 -15 81 -20 117 -10 28 8 35
15 35 34 0 23 -1 23 -27 9 -43 -22 -81 -18 -108 12 -14 15 -25 35 -25 44 0 15
10 18 80 17 43 -1 82 2 86 6 10 10 -5 74 -24 97 -20 24 -84 35 -119 20z m78
-35 c9 -6 20 -20 23 -32 7 -22 5 -23 -58 -23 -36 0 -66 3 -66 6 0 16 24 46 43
53 25 10 36 9 58 -4z"/>
<path d="M1098 542 c-16 -3 -18 -17 -18 -123 0 -112 1 -119 20 -119 19 0 20 7
20 89 0 82 2 91 22 105 31 22 65 20 78 -3 5 -11 10 -58 10 -105 0 -79 2 -86
20 -86 19 0 20 7 20 93 0 54 -6 102 -13 117 -18 37 -59 48 -101 27 -26 -12
-36 -13 -38 -4 -2 7 -11 11 -20 9z"/>
<path d="M1373 540 c-76 -32 -80 -202 -5 -228 31 -11 70 -6 89 9 14 12 18 2
13 -31 -4 -36 -54 -52 -122 -38 -15 4 -18 -24 -3 -34 17 -13 109 -8 127 6 33
25 44 76 44 196 l-1 115 -25 3 c-14 1 -41 4 -60 7 -19 2 -45 0 -57 -5z m93
-42 c10 -16 12 -110 2 -130 -4 -9 -22 -20 -40 -23 -27 -6 -36 -3 -55 19 -27
32 -26 96 3 127 19 21 78 26 90 7z"/>
<path d="M1798 532 c-26 -15 -33 -35 -28 -72 3 -27 30 -48 74 -59 46 -11 64
-34 45 -57 -15 -19 -69 -18 -97 2 -12 8 -22 14 -23 12 -10 -42 -8 -47 24 -54
71 -15 90 -13 119 16 51 52 31 99 -53 123 -36 11 -44 17 -44 36 0 32 31 42 78
26 36 -12 37 -12 37 10 0 36 -84 48 -132 17z"/>
<path d="M1679 538 c0 -5 -1 -192 0 -215 1 -16 7 -23 21 -23 19 0 20 7 20 120
0 113 -1 120 -20 120 -11 0 -20 -1 -21 -2z"/>
</g>
</svg>
